<svg width="0" height="0" class="hidden">
  <symbol version="1.1" xmlns="http://www.w3.org/2000/svg" xmlns:xlink="http://www.w3.org/1999/xlink" xmlnsSketch="http://www.bohemiancoding.com/sketch/ns" viewBox="0 0 32 32" id="edit">
    <title>new</title>
    <desc>Created with Sketch Beta.</desc>
    <defs></defs>
    <g id="Page-1" stroke="none" stroke-width="1" fill="none" fill-rule="evenodd" sketchType="MSPage">
      <g id="Icon-Set" sketchType="MSLayerGroup" transform="translate(-516.000000, -99.000000)" fill="#000000">
        <path d="M527.786,122.02 L522.414,125.273 C521.925,125.501 521.485,125.029 521.713,124.571 L524.965,119.195 L527.786,122.02 L527.786,122.02 Z M537.239,106.222 L540.776,109.712 L529.536,120.959 C528.22,119.641 526.397,117.817 526.024,117.444 L537.239,106.222 L537.239,106.222 Z M540.776,102.683 C541.164,102.294 541.793,102.294 542.182,102.683 L544.289,104.791 C544.677,105.18 544.677,105.809 544.289,106.197 L542.182,108.306 L538.719,104.74 L540.776,102.683 L540.776,102.683 Z M524.11,117.068 L519.81,125.773 C519.449,126.754 520.233,127.632 521.213,127.177 L529.912,122.874 C530.287,122.801 530.651,122.655 530.941,122.365 L546.396,106.899 C547.172,106.124 547.172,104.864 546.396,104.088 L542.884,100.573 C542.107,99.797 540.85,99.797 540.074,100.573 L524.619,116.038 C524.328,116.329 524.184,116.693 524.11,117.068 L524.11,117.068 Z M546,111 L546,127 C546,128.099 544.914,129.012 543.817,129.012 L519.974,129.012 C518.877,129.012 517.987,128.122 517.987,127.023 L517.987,103.165 C517.987,102.066 518.902,101 520,101 L536,101 L536,99 L520,99 C517.806,99 516,100.969 516,103.165 L516,127.023 C516,129.22 517.779,131 519.974,131 L543.817,131 C546.012,131 548,129.196 548,127 L548,111 L546,111 L546,111 Z" id="new" sketchType="MSShapeGroup"></path>
      </g>
    </g>
  </symbol>
  
  <symbol version="1.1" xmlns="http://www.w3.org/2000/svg" xmlns:xlink="http://www.w3.org/1999/xlink" xmlnsSketch="http://www.bohemiancoding.com/sketch/ns" viewBox="-3 0 32 32" id="delete">
    <title>trash</title>
    <desc>Created with Sketch Beta.</desc>
    <defs></defs>
    <g id="Page-1" stroke="none" stroke-width="1" fill="none" fill-rule="evenodd" sketchType="MSPage">
      <g id="Icon-Set" sketchType="MSLayerGroup" transform="translate(-259.000000, -203.000000)" fill="#000000">
        <path d="M282,211 L262,211 C261.448,211 261,210.553 261,210 C261,209.448 261.448,209 262,209 L282,209 C282.552,209 283,209.448 283,210 C283,210.553 282.552,211 282,211 L282,211 Z M281,231 C281,232.104 280.104,233 279,233 L265,233 C263.896,233 263,232.104 263,231 L263,213 L281,213 L281,231 L281,231 Z M269,206 C269,205.447 269.448,205 270,205 L274,205 C274.552,205 275,205.447 275,206 L275,207 L269,207 L269,206 L269,206 Z M283,207 L277,207 L277,205 C277,203.896 276.104,203 275,203 L269,203 C267.896,203 267,203.896 267,205 L267,207 L261,207 C259.896,207 259,207.896 259,209 L259,211 C259,212.104 259.896,213 261,213 L261,231 C261,233.209 262.791,235 265,235 L279,235 C281.209,235 283,233.209 283,231 L283,213 C284.104,213 285,212.104 285,211 L285,209 C285,207.896 284.104,207 283,207 L283,207 Z M272,231 C272.552,231 273,230.553 273,230 L273,218 C273,217.448 272.552,217 272,217 C271.448,217 271,217.448 271,218 L271,230 C271,230.553 271.448,231 272,231 L272,231 Z M267,231 C267.552,231 268,230.553 268,230 L268,218 C268,217.448 267.552,217 267,217 C266.448,217 266,217.448 266,218 L266,230 C266,230.553 266.448,231 267,231 L267,231 Z M277,231 C277.552,231 278,230.553 278,230 L278,218 C278,217.448 277.552,217 277,217 C276.448,217 276,217.448 276,218 L276,230 C276,230.553 276.448,231 277,231 L277,231 Z" id="trash" sketchType="MSShapeGroup"></path>
      </g>
    </g>
  </symbol>

  <symbol version="1.1" xmlns="http://www.w3.org/2000/svg" xmlns:xlink="http://www.w3.org/1999/xlink" xmlnsSketch="http://www.bohemiancoding.com/sketch/ns" viewBox="0 0 32 32" id="add">
    <title>plus-square</title>
    <desc>Created with Sketch Beta.</desc>
    <defs></defs>
    <g id="Page-1" stroke="none" stroke-width="1" fill="none" fill-rule="evenodd" sketchType="MSPage">
      <g id="Icon-Set" sketchType="MSLayerGroup" transform="translate(-100.000000, -1035.000000)" fill="#000000">
        <path d="M130,1063 C130,1064.1 129.104,1065 128,1065 L104,1065 C102.896,1065 102,1064.1 102,1063 L102,1039 C102,1037.9 102.896,1037 104,1037 L128,1037 C129.104,1037 130,1037.9 130,1039 L130,1063 L130,1063 Z M128,1035 L104,1035 C101.791,1035 100,1036.79 100,1039 L100,1063 C100,1065.21 101.791,1067 104,1067 L128,1067 C130.209,1067 132,1065.21 132,1063 L132,1039 C132,1036.79 130.209,1035 128,1035 L128,1035 Z M122,1050 L117,1050 L117,1045 C117,1044.45 116.552,1044 116,1044 C115.448,1044 115,1044.45 115,1045 L115,1050 L110,1050 C109.448,1050 109,1050.45 109,1051 C109,1051.55 109.448,1052 110,1052 L115,1052 L115,1057 C115,1057.55 115.448,1058 116,1058 C116.552,1058 117,1057.55 117,1057 L117,1052 L122,1052 C122.552,1052 123,1051.55 123,1051 C123,1050.45 122.552,1050 122,1050 L122,1050 Z" id="plus-square" sketchType="MSShapeGroup"></path>
      </g>
    </g>
  </symbol>

  <symbol version="1.1" xmlns="http://www.w3.org/2000/svg" xmlns:xlink="http://www.w3.org/1999/xlink" xmlnsSketch="http://www.bohemiancoding.com/sketch/ns" viewBox="0 0 32 32" id="cancel">
    <title>cross-circle</title>
    <desc>Created with Sketch Beta.</desc>
    <defs></defs>
    <g id="Page-1" stroke="none" stroke-width="1" fill="none" fill-rule="evenodd" sketchType="MSPage">
      <g id="Icon-Set-Filled" sketchType="MSLayerGroup" transform="translate(-570.000000, -1089.000000)" fill="#000000">
        <path d="M591.657,1109.24 C592.048,1109.63 592.048,1110.27 591.657,1110.66 C591.267,1111.05 590.633,1111.05 590.242,1110.66 L586.006,1106.42 L581.74,1110.69 C581.346,1111.08 580.708,1111.08 580.314,1110.69 C579.921,1110.29 579.921,1109.65 580.314,1109.26 L584.58,1104.99 L580.344,1100.76 C579.953,1100.37 579.953,1099.73 580.344,1099.34 C580.733,1098.95 581.367,1098.95 581.758,1099.34 L585.994,1103.58 L590.292,1099.28 C590.686,1098.89 591.323,1098.89 591.717,1099.28 C592.11,1099.68 592.11,1100.31 591.717,1100.71 L587.42,1105.01 L591.657,1109.24 L591.657,1109.24 Z M586,1089 C577.163,1089 570,1096.16 570,1105 C570,1113.84 577.163,1121 586,1121 C594.837,1121 602,1113.84 602,1105 C602,1096.16 594.837,1089 586,1089 L586,1089 Z" id="cross-circle" sketchType="MSShapeGroup"></path>
      </g>
    </g>
  </symbol>

  <symbol version="1.1" xmlns="http://www.w3.org/2000/svg" xmlns:xlink="http://www.w3.org/1999/xlink" xmlnsSketch="http://www.bohemiancoding.com/sketch/ns" viewBox="0 0 32 32" id="save">
    <title>checkmark-square</title>
    <desc>Created with Sketch Beta.</desc>
    <defs></defs>
    <g id="Page-1" stroke="none" stroke-width="1" fill="none" fill-rule="evenodd" sketchType="MSPage">
      <g id="Icon-Set" sketchType="MSLayerGroup" transform="translate(-256.000000, -1035.000000)" fill="#000000">
        <path d="M286,1063 C286,1064.1 285.104,1065 284,1065 L260,1065 C258.896,1065 258,1064.1 258,1063 L258,1039 C258,1037.9 258.896,1037 260,1037 L284,1037 C285.104,1037 286,1037.9 286,1039 L286,1063 L286,1063 Z M284,1035 L260,1035 C257.791,1035 256,1036.79 256,1039 L256,1063 C256,1065.21 257.791,1067 260,1067 L284,1067 C286.209,1067 288,1065.21 288,1063 L288,1039 C288,1036.79 286.209,1035 284,1035 L284,1035 Z M278.027,1044.07 C277.548,1043.79 276.937,1043.96 276.661,1044.43 L270.266,1055.51 L266.688,1052.21 C266.31,1051.81 265.677,1051.79 265.274,1052.17 C264.871,1052.54 264.85,1053.18 265.228,1053.58 L269.8,1057.8 C270.177,1058.2 270.81,1058.22 271.213,1057.84 C271.335,1057.73 278.393,1045.43 278.393,1045.43 C278.669,1044.96 278.505,1044.34 278.027,1044.07 L278.027,1044.07 Z" id="checkmark-square" sketchType="MSShapeGroup"></path>
      </g>
    </g>
  </symbol>
</svg>